<?xml version="1.0" encoding="UTF-8" standalone="no"?>
<!DOCTYPE svg PUBLIC "-//W3C//DTD SVG 1.1//EN" "http://www.w3.org/Graphics/SVG/1.1/DTD/svg11.dtd">
<svg width="100%" height="100%" viewBox="0 0 800 800" version="1.1" xmlns="http://www.w3.org/2000/svg" xmlns:xlink="http://www.w3.org/1999/xlink" xml:space="preserve" xmlns:serif="http://www.serif.com/" style="fill-rule:evenodd;clip-rule:evenodd;stroke-linejoin:round;stroke-miterlimit:2;">
    <g>
        <path d="M329.022,465.773C349.789,403.452 326.922,367.391 293.439,361.113C253.03,353.539 224.386,367.391 180.423,423.9C136.472,480.409 151.131,566.209 226.475,568.311C289.261,570.045 314.375,509.713 329.022,465.773Z" style="fill-rule:nonzero;"/>
        <path d="M498.023,358.744C458.263,375.478 450.053,403.159 470.82,465.469C485.467,509.42 510.569,569.764 573.369,568.019C648.714,565.942 663.359,480.141 619.409,423.608C575.456,367.111 537.797,342.008 498.023,358.744Z" style="fill-rule:nonzero;"/>
        <path d="M227,219.488C227.538,214.992 227.831,210.423 227.831,205.806C227.831,142.873 176.844,91.873 113.923,91.873C51.013,91.872 0,142.872 0,205.806C0,268.705 51.013,319.703 113.922,319.703C117.756,319.703 121.569,319.52 125.306,319.141C145.022,294.894 179.859,256.097 227,219.488Z" style="fill-rule:nonzero;"/>
        <path d="M686.08,96.27C623.17,96.27 572.158,147.258 572.158,210.18C572.158,214.833 572.475,219.402 573.014,223.886C620.142,260.483 654.992,299.305 674.683,323.539C678.445,323.906 682.231,324.102 686.08,324.102C749,324.102 800,273.114 800,210.181C800,147.258 749,96.27 686.08,96.27Z" style="fill-rule:nonzero;"/>
        <path d="M504.033,656.97C498.084,654.577 491.328,657.483 488.947,663.42C487.419,667.256 485.38,670.372 482.936,673.009C479.283,676.98 474.569,679.911 469.011,681.927C463.477,683.942 457.136,684.944 450.688,684.944C445.3,684.944 439.866,684.248 434.856,682.978C427.331,681.097 420.833,677.847 416.863,674.391C414.858,672.692 413.491,670.983 412.697,669.492C411.916,667.989 411.609,666.767 411.597,665.411L411.597,619.445C422.114,617.589 438.348,611.848 454.266,594.502C462.622,585.4 468.411,559.895 447.23,549.914C436.2,544.723 419.88,543.659 400.005,543.659C380.119,543.659 363.811,544.722 352.769,549.914C331.6,559.895 337.389,585.4 345.745,594.502C361.661,611.847 377.895,617.589 388.413,619.445L388.413,665.411C388.4,666.328 388.253,667.158 387.936,668.061C387.386,669.663 386.202,671.555 384.089,673.533C380.986,676.539 375.869,679.544 369.711,681.62C363.542,683.734 356.395,684.942 349.311,684.942C340.723,684.967 332.331,683.134 325.723,679.605C322.413,677.82 319.505,675.658 317.063,673.008C314.619,670.37 312.603,667.255 311.053,663.419C308.672,657.483 301.928,654.575 295.978,656.969C290.03,659.339 287.147,666.081 289.528,672.044C292.094,678.469 295.709,684.1 300.058,688.778C306.581,695.814 314.642,700.688 323.109,703.742C331.598,706.795 340.528,708.127 349.311,708.127C356.689,708.127 363.958,707.188 370.847,705.439C381.169,702.813 390.661,698.452 398.233,692.003C398.833,691.491 399.333,690.855 399.906,690.317C399.919,690.317 399.919,690.342 399.931,690.342C406.234,696.327 414.15,700.603 422.834,703.583C431.508,706.539 441.023,708.127 450.686,708.127C462.389,708.116 474.408,705.794 485.183,700.064C490.558,697.206 495.602,693.469 499.952,688.778C504.3,684.098 507.916,678.469 510.494,672.044C512.864,666.083 509.97,659.341 504.033,656.97Z" style="fill-rule:nonzero;"/>
    </g>
</svg>
